<svg width="1000" height="1500" viewBox="0 0 1000 1500" fill="none"
    xmlns="http://www.w3.org/2000/svg">
    <style>@import url('https://fonts.googleapis.com/css2?family=Josefin+Sans:ital,wght@0,100;0,200;0,300;0,400;0,500;0,600;0,700;1,100;1,200;1,300;1,400;1,500;1,600;1,700');</style>
    <rect width="1000" height="1500" fill="url(#paint0_linear)" />
    <circle cx="504" cy="734" r="184" fill="url(#paint1_linear)" />
    <path class="moon" d="M476.391 663C520.91 663 557 626.86 557 582.279C557 549.805 537.85 521.81 510.242 509C523.989 524.004 532.38 544.009 532.38 565.976C532.38 612.533 494.691 650.276 448.198 650.276C441.949 650.276 435.86 649.594 430 648.301C443.119 657.561 459.12 663 476.391 663Z" fill="rgba(0,0,0,0)" />
    <circle cx="500" cy="555" r="125" fill="url(#paint6_linear)" />
    <g>
        <path class="mountains" d="M484.5 728L494 712L555 741L589.5 776.5L599 767L629 776.5L653.5 813.5H702.5L734.5 850.5L759.5 858L826 914.5L838 900L862.5 929.5L872.5 914.5L1017 1020.5V1545.5H-9V1054.5L55 1003.5L242 862L280.5 842.5L302.5 854V849H311.5L314.5 829.5L330 837.5L362.5 802H375L407.5 767H423.5L439.5 741H455.5L468.5 728H484.5Z" fill="rgba(0,0,0,0)" />
        <mask id="mask0" mask-type="alpha" maskUnits="userSpaceOnUse" x="-9" y="712" width="1026" height="546">
            <path d="M484.5 728L494 712L555 741L589.5 776.5L599 767L629 776.5L653.5 813.5H702.5L734.5 850.5L759.5 858L826 914.5L838 900L862.5 929.5L872.5 914.5L1017 1020.5V1257.5H-9V1054.5L55 1003.5L242 862L280.5 842.5L302.5 854V849H311.5L314.5 829.5L330 837.5L362.5 802H375L407.5 767H423.5L439.5 741H455.5L468.5 728H484.5Z" fill="#ffd200" />
        </mask>
        <g mask="url(#mask0)">
            <path d="M302 848.5L327.5 850L314.5 829.5L399.5 871.5L414 912.5C403.5 933.333 383 975.9 385 979.5C387 983.1 343.5 1009.67 321.5 1022.5L282.5 994L263.5 946L321.5 962V946L259 908.5L252 870.5L268 879.5H287L298.5 895.5H315.5L347.5 936L355 901L302 848.5Z" fill="url(#paint2_linear)" />
            <path d="M515.5 741.5L493 710C518.5 703.5 569 690.9 571 692.5C573.5 694.5 659.5 752 659.5 754.5C659.5 757 670.5 802.5 670.5 806.5C670.5 809.7 663.167 827.833 659.5 836.5C659.5 836.5 637.434 817.154 622 806.5C607.229 796.303 582.5 783 582.5 783C582.5 783 600.148 799.175 614.5 810.5C628.852 821.825 656 841 656 841L640.5 856.5L631.25 875L622 878.5V871.5C622 871.5 570.789 837.496 547.5 817.5C529.687 802.205 511.5 790.5 511.5 790.5C511.5 790.5 548.425 810.517 565.5 822.5C580.663 833.141 598 841 598 841C598 841 556.707 803.445 527.5 783C487.5 755 468.5 728 468.5 728L492 735.5H497.5L515.5 741.5Z" fill="url(#paint3_linear)" />
            <path d="M695 836.5L708 809L1026.5 943.5L974.5 1052L825.5 954.5L952.5 1065L870 1102.5L730 990L856 1127.5L576.5 1175L533 1058L482 1040.5L440 990L444.5 950.5L482 977L444.5 916L440 888.5L495 926L491 897L554.5 966.5L617 990L609.5 966.5L657.5 981L653 926L622.5 880L653 897L640 856.5L661.5 848H689L670.5 830.5L695 836.5Z" fill="url(#paint4_linear)" />
            <path d="M533 847.5C525.618 831.794 519.694 821.949 505 802C551.095 830.495 575.348 848.582 615.5 885L561 921.5C548.048 895.099 531.201 876.057 488.5 836.5L533 847.5Z" fill="url(#paint5_linear)" />
        </g>
    </g>
    <text class="now" text-anchor="middle" fill="#ffffff" font-family="Josefin Sans">
        <tspan class="temp" font-size="210" x="425" y="384"></tspan>
        <tspan class="weather" font-size="64" x="400" y="466"></tspan>
    </text>
    <g class="hint">
        <path d="M50 1285H950" stroke="white" stroke-linejoin="round" />
        <path d="M50 1380H950" stroke="white" stroke-linejoin="round" />
    </g>
    <text fill="#ffffff" font-family="Josefin Sans" font-size="40">
        <tspan class="week_days_one" x="66" y="1255"></tspan>
        <tspan class="week_days_two" x="66" y="1347"></tspan>
        <tspan class="week_days_three" x="66" y="1439"></tspan>
    </text>
    <text text-anchor="end" fill="#ffffff" font-family="Josefin Sans" font-size="40">
        <tspan class="week_temp_one" x="963" y="1244"></tspan>
        <tspan class="week_temp_two" x="963" y="1336"></tspan>
        <tspan class="week_temp_three" x="950" y="1428"></tspan>
    </text>
    <text text-anchor="end" fill="#ffffff" font-family="Josefin Sans" font-size="30" font-weight="300">
        <tspan class="week_weather_one" x="950" y="1272"></tspan>
        <tspan class="week_weather_two" x="950" y="1364"></tspan>
        <tspan class="week_weather_three" x="940" y="1456"></tspan>
    </text>
    <defs>
        <linearGradient id="paint0_linear" x1="500" y1="0" x2="500" y2="1500" gradientUnits="userSpaceOnUse">
            <stop class="background" stop-color="rgba(0,0,0,0)" />
            <stop class="background_shadow" offset="1" stop-color="rgba(0,0,0,0)" />
        </linearGradient>
        <linearGradient id="paint1_linear" x1="405.719" y1="591.382" x2="574.201" y2="865.534" gradientUnits="userSpaceOnUse">
            <stop class="sun" stop-color="rgba(0,0,0,0)" />
            <stop class="sun_shadow" offset="1" stop-color="rgba(0,0,0,0)" />
        </linearGradient>
        <linearGradient id="paint2_linear" x1="282.5" y1="856" x2="352" y2="917" gradientUnits="userSpaceOnUse">
            <stop stop-color="white" stop-opacity="0.9" />
            <stop class="mountains" offset="1" stop-color="rgba(0,0,0,0)" stop-opacity="0" />
        </linearGradient>
        <linearGradient id="paint3_linear" x1="487.5" y1="712.5" x2="643.5" y2="867.5" gradientUnits="userSpaceOnUse">
            <stop stop-color="white" stop-opacity="0.9" />
            <stop offset="0.359375" stop-color="#E2E0E3" stop-opacity="0.772881" />
            <stop class="mountains" offset="0.921875" stop-color="rgba(0,0,0,0)" stop-opacity="0" />
        </linearGradient>
        <linearGradient id="paint4_linear" x1="547.5" y1="818.5" x2="712.5" y2="1124" gradientUnits="userSpaceOnUse">
            <stop stop-color="white" stop-opacity="0.9" />
            <stop offset="0.307292" stop-color="#E6E5E8" stop-opacity="0.792187" />
            <stop class="mountains" offset="1" stop-color="rgba(0,0,0,0)" stop-opacity="0" />
        </linearGradient>
        <linearGradient id="paint5_linear" x1="500.5" y1="808" x2="601.5" y2="906.5" gradientUnits="userSpaceOnUse">
            <stop stop-color="white" stop-opacity="0.9" />
            <stop offset="0.416667" stop-color="white" stop-opacity="0.4875" />
            <stop offset="1" stop-color="white" stop-opacity="0" />
        </linearGradient>
        <linearGradient id="paint6_linear" x1="433.233" y1="458.112" x2="547.691" y2="644.357" gradientUnits="userSpaceOnUse">
            <stop class="sun_day" stop-color="rgba(0,0,0,0)" />
            <stop class="sun_day_shadow" offset="1" stop-color="rgba(0,0,0,0)" />
        </linearGradient>
    </defs>
</svg>
