<svg width="1800" height="1400" viewBox="0 0 1800 1400" fill="none" xmlns="http://www.w3.org/2000/svg" xmlns:xlink="http://www.w3.org/1999/xlink">
  <rect class="back" width="1800" height="1400" fill="#000000"/>
  <g filter="url(#filter0_f)">
    <rect x="134" y="225" width="1531.29" height="950" fill="black" fill-opacity="0.15"/>
  </g>
  <rect x="177" y="250" width="1450" height="900" rx="25" fill="url(#pattern0)"/>
  <g class="top_cont">
    <circle cx="272.5" cy="299.5" r="12.5" fill="url(#pattern1)"/>
    <text class="top" fill="#000000" x="293" y="307" font-family="Josefin Sans" font-size="20" font-weight="400">
      <tspan class="user"  fill-opacity="0.9"></tspan>
      <tspan fill-opacity="0.6">  •  </tspan>
      <tspan class="time"  fill-opacity="0.7"></tspan>
    </text>
  </g>
  <g class="bottom_cont">
    <g class="bottom" fill="#000000" font-family="Light, Josefin Sans" fill-opacity="0.9">
      <text class="temp" text-anchor="end" x="410" y="1055" font-size="110"></text>
      <text class="name" x="449" y="1025" font-size="64" font-weight="300"></text>
      <text class="main" x="449" y="1057" font-size="24" font-weight="300"></text>
    </g>
    <circle class="deg" cx="422.75" cy="990.75" r="8.5" stroke="#000000" stroke-opacity="0.9" stroke-width="5.5"/>
  </g>
  <g class="side_bar">
    <g class="now">
      <text fill="rgb(240,240,240)"  fill-opacity="0.9" font-family="Josefin Sans">
        <tspan class="min" text-anchor="end" x="1510" y="337" font-size="44">-28</tspan>
        <tspan class="max" text-anchor="end" x="1590" y="337" font-size="44">05</tspan>
        <tspan class="min_text" text-anchor="end" x="1507" y="354" font-size="30" font-weight="300">min</tspan>
        <tspan class="max_text" text-anchor="end" x="1587" y="354" font-size="30" font-weight="300">max</tspan>
      </text>
      <circle class="min_deg" cx="1511" cy="310" r="4" stroke="rgb(240,240,240)" stroke-opacity="0.9" stroke-width="3"/>
      <circle class="max_deg" cx="1591" cy="310" r="4" stroke="rgb(240,240,240)" stroke-opacity="0.9" stroke-width="3"/>
    </g>
    <g class="hourly">
      <text x="1090" y="370" fill="rgb(240,240,240)" font-family="Josefin Sans" fill-opacity="0.9" font-size="24">Hourly forecast</text>
      <polyline class="graph_fill" points="1110,515 1110,515 1170,475 1230,470 1290,480 1350,485 1410,480 1470,505 1530,503 1590,495 1590,515" fill-opacity="0.4" fill="rgb(240,240,240)"/>
      <polyline class="graph" points="1110,515 1170,475 1230,470 1290,480 1350,485 1410,480 1470,505 1530,503 1590,495" stroke="rgb(240,240,240)" stroke-width="4" stroke-linecap="round" stroke-linejoin="round"/>
      <g filter="url(#filter1_f)">
        <polyline class="graph_fill" points="1110,515 1110,515 1170,475 1230,470 1290,480 1350,485 1410,480 1470,505 1530,503 1590,495 1590,515" fill="#ffffff" fill-opacity="0.6"/>
      </g>
      <text text-anchor="middle" fill="rgb(240,240,240)"  fill-opacity="0.9" font-family="Josefin Sans" font-size="16" font-weight="400">
        <tspan class="hour1" x="1110" y="495">12</tspan>
        <tspan class="hour2" x="1170" y="465">13</tspan>
        <tspan class="hour3" x="1230" y="450">14</tspan>
        <tspan class="hour4" x="1290" y="460">15</tspan>
        <tspan class="hour5" x="1350" y="465">16</tspan>
        <tspan class="hour6" x="1410" y="460">17</tspan>
        <tspan class="hour7" x="1470" y="485">18</tspan>
        <tspan class="hour8" x="1530" y="483">19</tspan>
        <tspan class="hour9" x="1590" y="475">20</tspan>
      </text>
      <text y="405" text-anchor="middle" fill="rgb(240,240,240)"  fill-opacity="0.9" font-family="Josefin Sans" font-size="18" font-weight="400">
        <tspan class="time1" x="1110">now</tspan>
        <tspan class="time2" x="1170">8pm</tspan>
        <tspan class="time3" x="1230">9pm</tspan>
        <tspan class="time4" x="1290">10pm</tspan>
        <tspan class="time5" x="1350">11pm</tspan>
        <tspan class="time6" x="1410">12pm</tspan>
        <tspan class="time7" x="1470">1am</tspan>
        <tspan class="time8" x="1530">2am</tspan>
        <tspan class="time9" x="1590">3am</tspan>
      </text>
    </g>
  </g>


  <defs>
    <filter id="filter1_f" x="1000" y="400" width="900" height="250" filterUnits="userSpaceOnUse" color-interpolation-filters="sRGB">
      <feFlood flood-opacity="0" result="BackgroundImageFix"/>
      <feBlend mode="normal" in="SourceGraphic" in2="BackgroundImageFix" result="shape"/>
      <feGaussianBlur stdDeviation="10" result="effect1_foregroundBlur"/>
    </filter>
    <filter id="filter0_f" x="34" y="125" width="1731.29" height="1150" filterUnits="userSpaceOnUse" color-interpolation-filters="sRGB">
      <feFlood flood-opacity="0" result="BackgroundImageFix"/>
      <feBlend mode="normal" in="SourceGraphic" in2="BackgroundImageFix" result="shape"/>
      <feGaussianBlur stdDeviation="50" result="effect1_foregroundBlur"/>
    </filter>
    <pattern id="pattern0" patternContentUnits="objectBoundingBox" width="1" height="1">
      <use xlink:href="#image0" transform="scale(0.000689655 0.00111111)"/>
    </pattern>
    <pattern id="pattern1" patternContentUnits="objectBoundingBox" width="1" height="1">
      <use xlink:href="#image1" transform="scale(0.0015625)"/>
    </pattern>
    <image class="back_pic" id="image0" width="1450" height="900" xlink:href=""/>
    <image class="user_pic" id="image1" width="640" height="640" xlink:href=""/>
  </defs>
</svg>