<svg width="1280" height="784" viewBox="0 0 1280 784" fill="none"
	xmlns="http://www.w3.org/2000/svg"
	xmlns:xlink="http://www.w3.org/1999/xlink">
	<image class="back" id="image0" width="1280" height="784" xlink:href="" />
	<g class="Today">
		<g class="icon" transform="translate(47 554) scale(2.5 2.5)"></g>
		<text class="temp" x="155" y="628" fill="rgba(255,255,255,1)" font-family="Mont-SemiBold" font-size="80"></text>
		<text class="place" x="60" y="690" fill="rgba(255,255,255,.7)" font-family="Mont-SemiBold" font-size="45"></text>
		<text class="name" x="60" y="716" fill="rgba(255,255,255,.7)" font-family="Mont-SemiBold" font-size="20"></text>
	</g>
	<g>
		<text x="895" y="105" fill="#FFFFFF" font-family="Mont-SemiBold" font-size="18">Hourly forecast</text>
		<polyline class="graph_fill" points="" fill="url(#paint0_linear)" fill-opacity="0.6" />
		<g filter="url(#filter2_d)">
			<polyline class="graph" points="" stroke="#FFFFFF" stroke-width="4" stroke-linecap="round" stroke-linejoin="round" />
		</g>
		<text text-anchor="middle" fill="rgba(255,255,255,.7)" font-family="Mont-SemiBold" font-size="12">
			<tspan class="graph_temp0" y="" x="895"></tspan>
			<tspan class="graph_temp7" y="" x="949"></tspan>
			<tspan class="graph_temp15" y="" x="1003"></tspan>
			<tspan class="graph_temp23" y="" x="1057"></tspan>
			<tspan class="graph_temp31" y="" x="1111"></tspan>
			<tspan class="graph_temp39" y="" x="1165"></tspan>
			<tspan class="graph_temp47" y="" x="1219"></tspan>
		</text>
		<text text-anchor="middle" fill="rgba(255,255,255,.7)" font-family="Mont-SemiBold" font-size="12">
			<tspan class="graph_time0" y="273" x="895"></tspan>
			<tspan class="graph_time7" y="273" x="949"></tspan>
			<tspan class="graph_time15" y="273" x="1003"></tspan>
			<tspan class="graph_time23" y="273" x="1057"></tspan>
			<tspan class="graph_time31" y="273" x="1111"></tspan>
			<tspan class="graph_time39" y="273" x="1165"></tspan>
			<tspan class="graph_time47" y="273" x="1219"></tspan>
		</text>
	</g>
	<g class="week">
		<text class="week-days" fill="#FAFAFA" font-family="Mont-SemiBold" font-size="18">
			<tspan class="wd1" x="895" y="389"></tspan>
			<tspan class="wd2" x="895" y="439"></tspan>
			<tspan class="wd3" x="895" y="489"></tspan>
			<tspan class="wd4" x="895" y="539"></tspan>
			<tspan class="wd5" x="895" y="589"></tspan>
			<tspan class="wd6" x="895" y="639"></tspan>
			<tspan class="wd7" x="895" y="689"></tspan>
		</text>
		<text class="humidity" fill="#FAFAFA" font-family="Mont-SemiBold" font-size="14">
			<tspan class="h1" x="1047" y="388"></tspan>
			<tspan class="h2" x="1047" y="438"></tspan>
			<tspan class="h3" x="1047" y="488"></tspan>
			<tspan class="h4" x="1047" y="538"></tspan>
			<tspan class="h5" x="1047" y="588"></tspan>
			<tspan class="h6" x="1047" y="638"></tspan>
			<tspan class="h7" x="1047" y="688"></tspan>
		</text>
		<text text-anchor="middle" class="week-temp" fill="#FAFAFA" font-family="Mont-SemiBold" font-size="14">
			<tspan class="wt-day1" x="1190" y="388">
				<tspan class="wt-night1" fill-opacity=".7"></tspan>
			</tspan>
			<tspan class="wt-day2" x="1190" y="438">
				<tspan class="wt-night2" fill-opacity=".7"></tspan>
			</tspan>
			<tspan class="wt-day3" x="1190" y="488">
				<tspan class="wt-night3" fill-opacity=".7"></tspan>
			</tspan>
			<tspan class="wt-day4" x="1190" y="538">
				<tspan class="wt-night4" fill-opacity=".7"></tspan>
			</tspan>
			<tspan class="wt-day5" x="1190" y="588">
				<tspan class="wt-night5" fill-opacity=".7"></tspan>
			</tspan>
			<tspan class="wt-day6" x="1190" y="638">
				<tspan class="wt-night6" fill-opacity=".7"></tspan>
			</tspan>
			<tspan class="wt-day7" x="1190" y="688">
				<tspan class="wt-night7" fill-opacity=".7"></tspan>
			</tspan>
		</text>
		<g class="week-icons">
			<g class="wi1" transform="translate(1100 363)"></g>
			<g class="wi2" transform="translate(1100 413)"></g>
			<g class="wi3" transform="translate(1100 463)"></g>
			<g class="wi4" transform="translate(1100 513)"></g>
			<g class="wi5" transform="translate(1100 563)"></g>
			<g class="wi6" transform="translate(1100 613)"></g>
			<g class="wi7" transform="translate(1100 663)"></g>
		</g>
		<g class="humidity">
			<path d="M1039.46 379.071C1039.39 379.025 1039.31 379 1039.23 379C1039.15 379 1039.06 379.025 1039 379.071C1038.87 379.155 1036 381.155 1036 384.105C1036 384.961 1036.34 385.783 1036.95 386.388C1037.55 386.994 1038.37 387.334 1039.23 387.334C1040.09 387.334 1040.91 386.994 1041.51 386.388C1042.12 385.783 1042.46 384.961 1042.46 384.105C1042.46 381.105 1039.58 379.151 1039.46 379.071ZM1039.23 386.501C1038.59 386.5 1037.99 386.247 1037.54 385.798C1037.26 385.523 1037.06 385.19 1036.95 384.827C1036.87 384.595 1036.83 384.352 1036.83 384.105C1036.83 383.239 1037.14 382.462 1037.54 381.812C1037.6 381.705 1037.67 381.601 1037.74 381.5C1038.27 380.748 1038.9 380.202 1039.23 379.938C1039.56 380.198 1040.19 380.745 1040.72 381.5C1040.79 381.601 1040.86 381.705 1040.92 381.812C1041.32 382.463 1041.63 383.24 1041.63 384.105C1041.62 384.352 1041.59 384.595 1041.51 384.827C1041.4 385.19 1041.2 385.523 1040.92 385.798C1040.47 386.247 1039.86 386.5 1039.23 386.501Z" fill="#FAFAFA" />
			<mask id="mask0" mask-type="alpha" maskUnits="userSpaceOnUse" x="1036" y="379" width="6" height="8">
				<path d="M1039.23 386.501C1038.59 386.5 1037.99 386.247 1037.54 385.798C1037.26 385.523 1037.06 385.19 1036.95 384.827C1036.87 384.595 1036.83 384.352 1036.83 384.105C1036.83 383.239 1037.14 382.462 1037.54 381.812C1037.6 381.705 1037.67 381.601 1037.74 381.5C1038.27 380.748 1038.9 380.202 1039.23 379.938C1039.56 380.198 1040.19 380.745 1040.72 381.5C1040.79 381.601 1040.86 381.705 1040.92 381.812C1041.32 382.463 1041.63 383.24 1041.63 384.105C1041.62 384.352 1041.59 384.595 1041.51 384.827C1041.4 385.19 1041.2 385.523 1040.92 385.798C1040.47 386.247 1039.86 386.5 1039.23 386.501Z" fill="#FAFAFA" />
			</mask>
			<g mask="url(#mask0)">
				<rect class="hum1" x="1036.8" y="379.9" width="4.9" height="6.6" fill="#FAFAFA" />
			</g>
			<path d="M1039.46 429.071C1039.39 429.025 1039.31 429 1039.23 429C1039.15 429 1039.06 429.025 1039 429.071C1038.87 429.155 1036 431.155 1036 434.105C1036 434.961 1036.34 435.783 1036.95 436.388C1037.55 436.994 1038.37 437.334 1039.23 437.334C1040.09 437.334 1040.91 436.994 1041.51 436.388C1042.12 435.783 1042.46 434.961 1042.46 434.105C1042.46 431.105 1039.58 429.151 1039.46 429.071ZM1039.23 436.501C1038.59 436.5 1037.99 436.247 1037.54 435.798C1037.26 435.523 1037.06 435.19 1036.95 434.827C1036.87 434.595 1036.83 434.352 1036.83 434.105C1036.83 433.239 1037.14 432.462 1037.54 431.812C1037.6 431.705 1037.67 431.601 1037.74 431.5C1038.27 430.748 1038.9 430.202 1039.23 429.938C1039.56 430.198 1040.19 430.745 1040.72 431.5C1040.79 431.601 1040.86 431.705 1040.92 431.812C1041.32 432.463 1041.63 433.24 1041.63 434.105C1041.62 434.352 1041.59 434.595 1041.51 434.827C1041.4 435.19 1041.2 435.523 1040.92 435.798C1040.47 436.247 1039.86 436.5 1039.23 436.501Z" fill="#FAFAFA" />
			<mask id="mask1" mask-type="alpha" maskUnits="userSpaceOnUse" x="1036" y="429" width="6" height="8">
				<path d="M1039.23 436.501C1038.59 436.5 1037.99 436.247 1037.54 435.798C1037.26 435.523 1037.06 435.19 1036.95 434.827C1036.87 434.595 1036.83 434.352 1036.83 434.105C1036.83 433.239 1037.14 432.462 1037.54 431.812C1037.6 431.705 1037.67 431.601 1037.74 431.5C1038.27 430.748 1038.9 430.202 1039.23 429.938C1039.56 430.198 1040.19 430.745 1040.72 431.5C1040.79 431.601 1040.86 431.705 1040.92 431.812C1041.32 432.463 1041.63 433.24 1041.63 434.105C1041.62 434.352 1041.59 434.595 1041.51 434.827C1041.4 435.19 1041.2 435.523 1040.92 435.798C1040.47 436.247 1039.86 436.5 1039.23 436.501Z" fill="#FAFAFA" />
			</mask>
			<g mask="url(#mask1)">
				<rect class="hum2" x="1036.8" y="429.9" width="4.9" height="6.6" fill="#FAFAFA" />
			</g>
			<path d="M1039.46 479.071C1039.39 479.025 1039.31 479 1039.23 479C1039.15 479 1039.06 479.025 1039 479.071C1038.87 479.155 1036 481.155 1036 484.105C1036 484.961 1036.34 485.783 1036.95 486.388C1037.55 486.994 1038.37 487.334 1039.23 487.334C1040.09 487.334 1040.91 486.994 1041.51 486.388C1042.12 485.783 1042.46 484.961 1042.46 484.105C1042.46 481.105 1039.58 479.151 1039.46 479.071ZM1039.23 486.501C1038.59 486.5 1037.99 486.247 1037.54 485.798C1037.26 485.523 1037.06 485.19 1036.95 484.827C1036.87 484.595 1036.83 484.352 1036.83 484.105C1036.83 483.239 1037.14 482.462 1037.54 481.812C1037.6 481.705 1037.67 481.601 1037.74 481.5C1038.27 480.748 1038.9 480.202 1039.23 479.938C1039.56 480.198 1040.19 480.745 1040.72 481.5C1040.79 481.601 1040.86 481.705 1040.92 481.812C1041.32 482.463 1041.63 483.24 1041.63 484.105C1041.62 484.352 1041.59 484.595 1041.51 484.827C1041.4 485.19 1041.2 485.523 1040.92 485.798C1040.47 486.247 1039.86 486.5 1039.23 486.501Z" fill="#FAFAFA" />
			<mask id="mask2" mask-type="alpha" maskUnits="userSpaceOnUse" x="1036" y="479" width="6" height="8">
				<path d="M1039.23 486.501C1038.59 486.5 1037.99 486.247 1037.54 485.798C1037.26 485.523 1037.06 485.19 1036.95 484.827C1036.87 484.595 1036.83 484.352 1036.83 484.105C1036.83 483.239 1037.14 482.462 1037.54 481.812C1037.6 481.705 1037.67 481.601 1037.74 481.5C1038.27 480.748 1038.9 480.202 1039.23 479.938C1039.56 480.198 1040.19 480.745 1040.72 481.5C1040.79 481.601 1040.86 481.705 1040.92 481.812C1041.32 482.463 1041.63 483.24 1041.63 484.105C1041.62 484.352 1041.59 484.595 1041.51 484.827C1041.4 485.19 1041.2 485.523 1040.92 485.798C1040.47 486.247 1039.86 486.5 1039.23 486.501Z" fill="#FAFAFA" />
			</mask>
			<g mask="url(#mask2)">
				<rect class="hum3" x="1036.8" y="479.9" width="4.9" height="6.6" fill="#FAFAFA" />
			</g>
			<path d="M1039.46 529.071C1039.39 529.025 1039.31 529 1039.23 529C1039.15 529 1039.06 529.025 1039 529.071C1038.87 529.155 1036 531.155 1036 534.105C1036 534.961 1036.34 535.783 1036.95 536.388C1037.55 536.994 1038.37 537.334 1039.23 537.334C1040.09 537.334 1040.91 536.994 1041.51 536.388C1042.12 535.783 1042.46 534.961 1042.46 534.105C1042.46 531.105 1039.58 529.151 1039.46 529.071ZM1039.23 536.501C1038.59 536.5 1037.99 536.247 1037.54 535.798C1037.26 535.523 1037.06 535.19 1036.95 534.827C1036.87 534.595 1036.83 534.352 1036.83 534.105C1036.83 533.239 1037.14 532.462 1037.54 531.812C1037.6 531.705 1037.67 531.601 1037.74 531.5C1038.27 530.748 1038.9 530.202 1039.23 529.938C1039.56 530.198 1040.19 530.745 1040.72 531.5C1040.79 531.601 1040.86 531.705 1040.92 531.812C1041.32 532.463 1041.63 533.24 1041.63 534.105C1041.62 534.352 1041.59 534.595 1041.51 534.827C1041.4 535.19 1041.2 535.523 1040.92 535.798C1040.47 536.247 1039.86 536.5 1039.23 536.501Z" fill="#FAFAFA" />
			<mask id="mask3" mask-type="alpha" maskUnits="userSpaceOnUse" x="1036" y="529" width="6" height="8">
				<path d="M1039.23 536.501C1038.59 536.5 1037.99 536.247 1037.54 535.798C1037.26 535.523 1037.06 535.19 1036.95 534.827C1036.87 534.595 1036.83 534.352 1036.83 534.105C1036.83 533.239 1037.14 532.462 1037.54 531.812C1037.6 531.705 1037.67 531.601 1037.74 531.5C1038.27 530.748 1038.9 530.202 1039.23 529.938C1039.56 530.198 1040.19 530.745 1040.72 531.5C1040.79 531.601 1040.86 531.705 1040.92 531.812C1041.32 532.463 1041.63 533.24 1041.63 534.105C1041.62 534.352 1041.59 534.595 1041.51 534.827C1041.4 535.19 1041.2 535.523 1040.92 535.798C1040.47 536.247 1039.86 536.5 1039.23 536.501Z" fill="#FAFAFA" />
			</mask>
			<g mask="url(#mask3)">
				<rect class="hum4" x="1036.8" y="529.9" width="4.9" height="6.6" fill="#FAFAFA" />
			</g>
			<path d="M1039.46 579.071C1039.39 579.025 1039.31 579 1039.23 579C1039.15 579 1039.06 579.025 1039 579.071C1038.87 579.155 1036 581.155 1036 584.105C1036 584.961 1036.34 585.783 1036.95 586.388C1037.55 586.994 1038.37 587.334 1039.23 587.334C1040.09 587.334 1040.91 586.994 1041.51 586.388C1042.12 585.783 1042.46 584.961 1042.46 584.105C1042.46 581.105 1039.58 579.151 1039.46 579.071ZM1039.23 586.501C1038.59 586.5 1037.99 586.247 1037.54 585.798C1037.26 585.523 1037.06 585.19 1036.95 584.827C1036.87 584.595 1036.83 584.352 1036.83 584.105C1036.83 583.239 1037.14 582.462 1037.54 581.812C1037.6 581.705 1037.67 581.601 1037.74 581.5C1038.27 580.748 1038.9 580.202 1039.23 579.938C1039.56 580.198 1040.19 580.745 1040.72 581.5C1040.79 581.601 1040.86 581.705 1040.92 581.812C1041.32 582.463 1041.63 583.24 1041.63 584.105C1041.62 584.352 1041.59 584.595 1041.51 584.827C1041.4 585.19 1041.2 585.523 1040.92 585.798C1040.47 586.247 1039.86 586.5 1039.23 586.501Z" fill="#FAFAFA" />
			<mask id="mask4" mask-type="alpha" maskUnits="userSpaceOnUse" x="1036" y="579" width="6" height="8">
				<path d="M1039.23 586.501C1038.59 586.5 1037.99 586.247 1037.54 585.798C1037.26 585.523 1037.06 585.19 1036.95 584.827C1036.87 584.595 1036.83 584.352 1036.83 584.105C1036.83 583.239 1037.14 582.462 1037.54 581.812C1037.6 581.705 1037.67 581.601 1037.74 581.5C1038.27 580.748 1038.9 580.202 1039.23 579.938C1039.56 580.198 1040.19 580.745 1040.72 581.5C1040.79 581.601 1040.86 581.705 1040.92 581.812C1041.32 582.463 1041.63 583.24 1041.63 584.105C1041.62 584.352 1041.59 584.595 1041.51 584.827C1041.4 585.19 1041.2 585.523 1040.92 585.798C1040.47 586.247 1039.86 586.5 1039.23 586.501Z" fill="#FAFAFA" />
			</mask>
			<g mask="url(#mask4)">
				<rect class="hum5" x="1036.8" y="579.9" width="4.9" height="6.6" fill="#FAFAFA" />
			</g>
			<path d="M1039.46 629.071C1039.39 629.025 1039.31 629 1039.23 629C1039.15 629 1039.06 629.025 1039 629.071C1038.87 629.155 1036 631.155 1036 634.105C1036 634.961 1036.34 635.783 1036.95 636.388C1037.55 636.994 1038.37 637.334 1039.23 637.334C1040.09 637.334 1040.91 636.994 1041.51 636.388C1042.12 635.783 1042.46 634.961 1042.46 634.105C1042.46 631.105 1039.58 629.151 1039.46 629.071ZM1039.23 636.501C1038.59 636.5 1037.99 636.247 1037.54 635.798C1037.26 635.523 1037.06 635.19 1036.95 634.827C1036.87 634.595 1036.83 634.352 1036.83 634.105C1036.83 633.239 1037.14 632.462 1037.54 631.812C1037.6 631.705 1037.67 631.601 1037.74 631.5C1038.27 630.748 1038.9 630.202 1039.23 629.938C1039.56 630.198 1040.19 630.745 1040.72 631.5C1040.79 631.601 1040.86 631.705 1040.92 631.812C1041.32 632.463 1041.63 633.24 1041.63 634.105C1041.62 634.352 1041.59 634.595 1041.51 634.827C1041.4 635.19 1041.2 635.523 1040.92 635.798C1040.47 636.247 1039.86 636.5 1039.23 636.501Z" fill="#FAFAFA" />
			<mask id="mask5" mask-type="alpha" maskUnits="userSpaceOnUse" x="1036" y="629" width="6" height="8">
				<path d="M1039.23 636.501C1038.59 636.5 1037.99 636.247 1037.54 635.798C1037.26 635.523 1037.06 635.19 1036.95 634.827C1036.87 634.595 1036.83 634.352 1036.83 634.105C1036.83 633.239 1037.14 632.462 1037.54 631.812C1037.6 631.705 1037.67 631.601 1037.74 631.5C1038.27 630.748 1038.9 630.202 1039.23 629.938C1039.56 630.198 1040.19 630.745 1040.72 631.5C1040.79 631.601 1040.86 631.705 1040.92 631.812C1041.32 632.463 1041.63 633.24 1041.63 634.105C1041.62 634.352 1041.59 634.595 1041.51 634.827C1041.4 635.19 1041.2 635.523 1040.92 635.798C1040.47 636.247 1039.86 636.5 1039.23 636.501Z" fill="#FAFAFA" />
			</mask>
			<g mask="url(#mask5)">
				<rect class="hum6" x="1036.8" y="629.9" width="4.9" height="6.6" fill="#FAFAFA" />
			</g>
			<path d="M1039.46 679.071C1039.39 679.025 1039.31 679 1039.23 679C1039.15 679 1039.06 679.025 1039 679.071C1038.87 679.155 1036 681.155 1036 684.105C1036 684.961 1036.34 685.783 1036.95 686.388C1037.55 686.994 1038.37 687.334 1039.23 687.334C1040.09 687.334 1040.91 686.994 1041.51 686.388C1042.12 685.783 1042.46 684.961 1042.46 684.105C1042.46 681.105 1039.58 679.151 1039.46 679.071ZM1039.23 686.501C1038.59 686.5 1037.99 686.247 1037.54 685.798C1037.26 685.523 1037.06 685.19 1036.95 684.827C1036.87 684.595 1036.83 684.352 1036.83 684.105C1036.83 683.239 1037.14 682.462 1037.54 681.812C1037.6 681.705 1037.67 681.601 1037.74 681.5C1038.27 680.748 1038.9 680.202 1039.23 679.938C1039.56 680.198 1040.19 680.745 1040.72 681.5C1040.79 681.601 1040.86 681.705 1040.92 681.812C1041.32 682.463 1041.63 683.24 1041.63 684.105C1041.62 684.352 1041.59 684.595 1041.51 684.827C1041.4 685.19 1041.2 685.523 1040.92 685.798C1040.47 686.247 1039.86 686.5 1039.23 686.501Z" fill="#FAFAFA" />
			<mask id="mask6" mask-type="alpha" maskUnits="userSpaceOnUse" x="1036" y="679" width="6" height="8">
				<path d="M1039.23 686.501C1038.59 686.5 1037.99 686.247 1037.54 685.798C1037.26 685.523 1037.06 685.19 1036.95 684.827C1036.87 684.595 1036.83 684.352 1036.83 684.105C1036.83 683.239 1037.14 682.462 1037.54 681.812C1037.6 681.705 1037.67 681.601 1037.74 681.5C1038.27 680.748 1038.9 680.202 1039.23 679.938C1039.56 680.198 1040.19 680.745 1040.72 681.5C1040.79 681.601 1040.86 681.705 1040.92 681.812C1041.32 682.463 1041.63 683.24 1041.63 684.105C1041.62 684.352 1041.59 684.595 1041.51 684.827C1041.4 685.19 1041.2 685.523 1040.92 685.798C1040.47 686.247 1039.86 686.5 1039.23 686.501Z" fill="#FAFAFA" />
			</mask>
			<g mask="url(#mask6)">
				<rect class="hum7" x="1036.8" y="679.9" width="4.9" height="6.6" fill="#FAFAFA" />
			</g>
		</g>
	</g>
	<defs>
		<filter id="filter2_d" x="889" y="155.678" width="336" height="103.929" filterUnits="userSpaceOnUse" color-interpolation-filters="sRGB">
			<feFlood flood-opacity="0" result="BackgroundImageFix" />
			<feColorMatrix in="SourceAlpha" type="matrix" values="0 0 0 0 0 0 0 0 0 0 0 0 0 0 0 0 0 0 127 0" />
			<feOffset dy="1" />
			<feGaussianBlur stdDeviation="2.5" />
			<feColorMatrix type="matrix" values="0 0 0 0 0 0 0 0 0 0 0 0 0 0 0 0 0 0 0.25 0" />
			<feBlend mode="normal" in2="BackgroundImageFix" result="effect1_dropShadow" />
			<feBlend mode="normal" in="SourceGraphic" in2="effect1_dropShadow" result="shape" />
		</filter>
		<linearGradient id="paint0_linear" x1="1057" y1="159.75" x2="1057" y2="254" gradientUnits="userSpaceOnUse">
			<stop stop-color="white" />
			<stop offset="1" stop-color="#C4C4C4" stop-opacity="0" />
		</linearGradient>
	</defs>
</svg>
