<svg width="27" height="23" viewBox="0 0 27 23" fill="none" xmlns="http://www.w3.org/2000/svg">
<path d="M5.91001 18.75C5.91001 18.92 5.96001 19.08 6.07001 19.24C6.18001 19.4 6.34001 19.51 6.56001 19.57C6.67001 19.59 6.76001 19.61 6.83001 19.61C7.22001 19.61 7.48001 19.4 7.60001 18.97L9.18001 13.09C9.25001 12.85 9.22001 12.63 9.10001 12.42C8.98001 12.21 8.80001 12.09 8.57001 12.04C8.35001 11.97 8.14001 11.99 7.94001 12.11C7.74001 12.22 7.60001 12.39 7.53001 12.62L5.95001 18.53C5.93001 18.66 5.91001 18.73 5.91001 18.75ZM8.52001 21.83C8.52001 22.02 8.57001 22.19 8.67001 22.35C8.77001 22.51 8.94001 22.61 9.19001 22.65C9.30001 22.67 9.39001 22.69 9.45001 22.69C9.61001 22.69 9.76001 22.63 9.90001 22.52C10.04 22.4 10.13 22.24 10.17 22.04L12.57 13.11C12.63 12.88 12.61 12.66 12.5 12.47C12.39 12.28 12.22 12.14 12 12.07C11.77 12 11.55 12.02 11.35 12.14C11.15 12.25 11.01 12.42 10.95 12.65L8.55001 21.58C8.53001 21.73 8.52001 21.82 8.52001 21.83ZM12.67 18.77C12.67 18.93 12.72 19.09 12.82 19.24C12.92 19.39 13.08 19.5 13.28 19.56C13.39 19.58 13.48 19.6 13.53 19.6C13.7 19.6 13.87 19.55 14.02 19.45C14.17 19.35 14.27 19.19 14.32 18.96L15.9 13.08C15.96 12.85 15.94 12.63 15.83 12.44C15.72 12.24 15.55 12.11 15.33 12.04C15.09 11.97 14.88 11.99 14.68 12.11C14.48 12.22 14.35 12.39 14.29 12.62L12.71 18.53C12.69 18.68 12.67 18.76 12.67 18.77Z" fill="black"/>
<path d="M0.51001 11.89C0.51001 13.22 0.97001 14.37 1.90001 15.33C2.83001 16.29 3.96001 16.8 5.31001 16.86C5.42001 16.86 5.48001 16.8 5.48001 16.69V15.35C5.48001 15.24 5.42001 15.18 5.31001 15.18C4.45001 15.14 3.72001 14.79 3.12001 14.15C2.52001 13.51 2.22001 12.75 2.22001 11.89C2.22001 11.07 2.50001 10.35 3.07001 9.73002C3.64001 9.11002 4.34001 8.76002 5.17001 8.66002L5.70001 8.61002C5.83001 8.61002 5.90001 8.55002 5.90001 8.44002L5.97001 7.90002C6.08001 6.82002 6.53001 5.91003 7.34001 5.18003C8.15001 4.45003 9.10001 4.08002 10.19 4.08002C11.28 4.08002 12.23 4.45003 13.05 5.18003C13.87 5.91003 14.33 6.82002 14.45 7.90002L14.52 8.47003C14.52 8.59003 14.58 8.66002 14.69 8.66002H16.31C17.2 8.66002 17.96 8.98002 18.61 9.62002C19.26 10.26 19.58 11.01 19.58 11.89C19.58 12.76 19.28 13.51 18.68 14.15C18.08 14.79 17.35 15.13 16.5 15.18C16.38 15.18 16.31 15.24 16.31 15.35V16.69C16.31 16.8 16.37 16.86 16.5 16.86C17.83 16.82 18.96 16.31 19.89 15.35C20.82 14.38 21.28 13.23 21.28 11.9C21.28 11.18 21.14 10.51 20.86 9.89003C20.5596 9.27305 20.3305 8.95158 19.79 8.44002C18.82 7.47002 17.66 6.99002 16.3 6.99002H15.97C15.7 5.81002 15.14 4.83002 14.3 4.03002C13.775 3.59522 13.4683 3.38317 12.9 3.06002C12.08 2.62002 11.18 2.40002 10.19 2.40002C8.78001 2.40002 7.52001 2.84002 6.43001 3.72002C5.34001 4.60002 4.64001 5.72002 4.33001 7.08002C3.22001 7.34002 2.31001 7.92002 1.59001 8.82002C0.87001 9.72002 0.51001 10.74 0.51001 11.89Z" fill="black"/>
<path d="M12.3721 1.8435C12.2555 1.9485 12.2788 2.03016 12.4538 2.0885C12.9555 2.31016 13.3755 2.52016 13.7138 2.73016C13.8421 2.76516 13.9355 2.75349 13.9705 2.69516C14.6821 2.03016 15.4988 1.69183 16.4438 1.69183C17.3888 1.69183 18.1938 2.00683 18.8938 2.63683C19.5821 3.26683 19.9671 4.0485 20.0488 4.97016L20.1538 5.71683H21.8105C22.5688 5.71683 23.2221 5.98516 23.7705 6.53349C24.3188 7.08183 24.5871 7.72349 24.5871 8.47016C24.5871 9.17016 24.3421 9.77683 23.8638 10.3018C23.3855 10.8268 22.7905 11.1185 22.0788 11.2002C21.9621 11.2002 21.9038 11.2585 21.9038 11.3868V12.7052C21.9038 12.8335 21.9621 12.8918 22.0788 12.8918C23.2571 12.8218 24.2488 12.3552 25.0538 11.5035C25.8588 10.6518 26.2671 9.63683 26.2671 8.47016C26.2671 7.23349 25.8355 6.18349 24.9605 5.32016C24.0855 4.44516 23.0355 4.01349 21.8105 4.01349H21.6355C21.3321 2.84683 20.6905 1.89016 19.7105 1.13183C18.7421 0.373496 17.6455 0.000162046 16.4438 0.000162046C14.8105 -0.0115046 13.4455 0.606829 12.3721 1.8435Z" fill="black"/>
</svg>
